<?xml version="1.0" encoding="UTF-8" standalone="no"?>
<!-- Created with Inkscape (http://www.inkscape.org/) -->

<svg
   xmlns:dc="http://purl.org/dc/elements/1.1/"
   xmlns:cc="http://creativecommons.org/ns#"
   xmlns:rdf="http://www.w3.org/1999/02/22-rdf-syntax-ns#"
   xmlns:svg="http://www.w3.org/2000/svg"
   xmlns="http://www.w3.org/2000/svg"
   version="1.1"
   width="48"
   height="48"
   viewBox="0 0 48 48"
   id="svg2">
  <metadata
     id="metadata12">
    <rdf:RDF>
      <cc:Work
         rdf:about="">
        <dc:format>image/svg+xml</dc:format>
        <dc:type
           rdf:resource="http://purl.org/dc/dcmitype/StillImage" />
        <dc:title></dc:title>
      </cc:Work>
    </rdf:RDF>
  </metadata>
  <defs
     id="defs10">
    <clipPath
       id="clipPath3018">
      <rect
         width="38.64407"
         height="19.118645"
         x="-0.40677965"
         y="14.440678"
         id="rect3020"
         style="fill:#ff0000" />
    </clipPath>
    <clipPath
       id="clipPath3022">
      <rect
         width="38.64407"
         height="19.118645"
         x="-0.40677965"
         y="14.440678"
         id="rect3024"
         style="fill:#ff0000" />
    </clipPath>
  </defs>
  <path
     d="m 0,-0.17 h 48 v 48 H 0 z"
     transform="matrix(1.356383,0,0,1.356383,-1.8305085,-8.8074278)"
     clip-path="url(#clipPath3022)"
     id="path4"
     style="fill:none" />
  <path
     d="m 5.1186441,5.9666102 c 0,2.6666666 0,7.9999998 0,7.9999998 l 4,0 0,-3.9999998 6.7796609,-2.440678 13.220339,6.4406778 4,0 c 0,0 1.023576,-5.5376018 0,-7.9999998 -0.72197,-1.7368308 -1.79,-3.98 -4,-3.98 l -19.9999999,-0.02 c -2.21,0 -4,1.79 -4,4 M 25.948644,33.13661 l 9.17,-9.17 -9.17,-9.17 -2.83,2.83 6.34,6.34 -6.34,6.35 z m -10.83,-2.82 -6.3399999,-6.34 6.3399999,-6.35 -2.83,-2.83 -9.1699999,9.17 9.1699999,9.17 z m 14,7.65 -19.9999999,0 0,-4 -4,0 0,8 c 0,2.21 1.79,4 4,4 l 19.9999999,0 c 2.21,0 4,-1.79 4,-4 l 0,-8 -4,0 z"
     transform="matrix(1.356383,0,0,1.356383,-1.9322038,-8.553192)"
     clip-path="url(#clipPath3018)"
     id="path6" />
</svg>
